/* XPM */
static char * unison_xpm[] = {
"121 34 256 2",
"  	c None",
". 	c #8A6E76",
"+ 	c #928E6A",
"@ 	c #6AC050",
"# 	c #66CE52",
"$ 	c #86DE72",
"% 	c #5AED71",
"& 	c #C2E2AE",
"* 	c #88EC84",
"= 	c #E54041",
"- 	c #C28E32",
"; 	c #BE723E",
"> 	c #C4B86D",
", 	c #C48C85",
"' 	c #C7B387",
") 	c #D1C96B",
"! 	c #CEF2C6",
"~ 	c #92C67E",
"{ 	c #C97494",
"] 	c #D9B491",
"^ 	c #E98F7E",
"/ 	c #DAC987",
"( 	c #C6537A",
"_ 	c #D7737F",
": 	c #A0EC9E",
"< 	c #DBCFAD",
"[ 	c #DEAFA7",
"} 	c #EEF6EB",
"| 	c #A6DA9E",
"1 	c #A6ECAE",
"2 	c #E2909A",
"3 	c #DB8E68",
"4 	c #D6827A",
"5 	c #ECCDB1",
"6 	c #D77169",
"7 	c #D3677A",
"8 	c #E4A9A1",
"9 	c #DDD9CB",
"0 	c #BEEACA",
"a 	c #EFB1A8",
"b 	c #D1A88C",
"c 	c #84B870",
"d 	c #DE5B9C",
"e 	c #FBFAFA",
"f 	c #DDA866",
"g 	c #D97198",
"h 	c #CD4E57",
"i 	c #E8C8C2",
"j 	c #A18F6D",
"k 	c #CFB767",
"l 	c #8ADE66",
"m 	c #8B7D71",
"n 	c #E57290",
"o 	c #F2B1BE",
"p 	c #EFDBBB",
"q 	c #D6E2CE",
"r 	c #E57169",
"s 	c #9E9E6A",
"t 	c #92C066",
"u 	c #C6EEC2",
"v 	c #EBDBCC",
"w 	c #DEA47E",
"x 	c #D28AA2",
"y 	c #CCAEA8",
"z 	c #E29E42",
"A 	c #BADA9E",
"B 	c #E9D76B",
"C 	c #D88690",
"D 	c #F0659F",
"E 	c #E1B6B5",
"F 	c #E49BA6",
"G 	c #F0BEBA",
"H 	c #F5C8C4",
"I 	c #9EBA8E",
"J 	c #C69A3E",
"K 	c #CEEECA",
"L 	c #E1B26D",
"M 	c #D06262",
"N 	c #FEFEFE",
"O 	c #D967B2",
"P 	c #E484A0",
"Q 	c #F68A46",
"R 	c #E57EA9",
"S 	c #AECAA4",
"T 	c #EDEBE7",
"U 	c #B1A278",
"V 	c #F3CBCF",
"W 	c #E8E4E0",
"X 	c #9C7278",
"Y 	c #F97F4A",
"Z 	c #EDB091",
"` 	c #FB99B0",
" .	c #E1C267",
"..	c #EAD8DC",
"+.	c #EA5696",
"@.	c #CABA9E",
"#.	c #C969A9",
"$.	c #D8BAC3",
"%.	c #C8A8AF",
"&.	c #E8CA66",
"*.	c #A79280",
"=.	c #D0A1B1",
"-.	c #E470A4",
";.	c #DE767C",
">.	c #C67A86",
",.	c #D87C67",
"'.	c #EEDAA2",
").	c #F0E4DB",
"!.	c #A6826A",
"~.	c #EF9E8A",
"{.	c #C4A08A",
"].	c #FBA9B9",
"^.	c #DDC8CA",
"/.	c #DC5A72",
"(.	c #C25A74",
"_.	c #F78FA7",
":.	c #DE6A3E",
"<.	c #B65276",
"[.	c #B9B469",
"}.	c #E59ABE",
"|.	c #C684A8",
"1.	c #EEB9D0",
"2.	c #DB7EA4",
"3.	c #EBA9AF",
"4.	c #CAA96C",
"5.	c #D56794",
"6.	c #F2EAD4",
"7.	c #C48468",
"8.	c #F7DAE3",
"9.	c #F4A970",
"0.	c #DB77BF",
"a.	c #F2E4AE",
"b.	c #E9BF7D",
"c.	c #E98E6A",
"d.	c #E9BE61",
"e.	c #CCBCB4",
"f.	c #CEC686",
"g.	c #F4F2F2",
"h.	c #DCD0C6",
"i.	c #E379A3",
"j.	c #EC85B3",
"k.	c #FEB8CE",
"l.	c #E7D1CA",
"m.	c #EC9768",
"n.	c #DC68A6",
"o.	c #DED27A",
"p.	c #F6D2DD",
"q.	c #ED786C",
"r.	c #EFBAAB",
"s.	c #9A6D73",
"t.	c #E1B0C2",
"u.	c #BE964A",
"v.	c #CAC8B9",
"w.	c #AA8088",
"x.	c #CD9A89",
"y.	c #E59991",
"z.	c #EFC1CD",
"A.	c #BB8F8C",
"B.	c #C996A7",
"C.	c #EEB46D",
"D.	c #AF6970",
"E.	c #949A70",
"F.	c #AAAE7E",
"G.	c #EDEBC5",
"H.	c #E2C2CF",
"I.	c #CE7F85",
"J.	c #A2A296",
"K.	c #CB8F65",
"L.	c #EDDEE1",
"M.	c #F89070",
"N.	c #E2A292",
"O.	c #E85252",
"P.	c #E1687F",
"Q.	c #F696C2",
"R.	c #6ACA62",
"S.	c #C89C59",
"T.	c #EFA067",
"U.	c #E16294",
"V.	c #D58F8E",
"W.	c #ED8155",
"X.	c #D88665",
"Y.	c #C7647E",
"Z.	c #EA6897",
"`.	c #F8DCCC",
" +	c #76E46C",
".+	c #F0857C",
"++	c #D595AB",
"@+	c #D3A79A",
"#+	c #F07E7E",
"$+	c #F4ECED",
"%+	c #F18499",
"&+	c #F0E4E7",
"*+	c #F3D0C4",
"=+	c #F68FC3",
"-+	c #B9B4A0",
";+	c #E75C5D",
">+	c #D97A9B",
",+	c #CAD2C1",
"'+	c #D6A8B3",
")+	c #E4A2BB",
"!+	c #EC6779",
"~+	c #B7A164",
"{+	c #AE7472",
"]+	c #C56A96",
"^+	c #EAA9C4",
"/+	c #F4CCDD",
"(+	c #F17391",
"_+	c #DF655F",
":+	c #F2E4C7",
"<+	c #F5BD8C",
"[+	c #EF79A5",
"}+	c #C1746E",
"|+	c #DC4664",
"1+	c #DB83A9",
"2+	c #E1DADB",
"3+	c #F2D8DC",
"4+	c #D973A9",
"5+	c #F7CCA8",
"6+	c #FAC1D5",
"7+	c #E590B5",
"8+	c #F69AA2",
"9+	c #DBBFB1",
"0+	c #E3BAC6",
"a+	c #F37EA9",
"b+	c #B89F93",
"c+	c #DFD1D5",
"d+	c #F4B1D0",
"e+	c #DDA064",
"f+	c #FDBDA5",
"g+	c #F59681",
"h+	c #E8C9D4",
"i+	c #CA9E6C",
"j+	c #F6C864",
"k+	c #EC737E",
"l+	c #86CE89",
"m+	c #F7F6F6",
"n+	c #EF70A8",
"o+	c #FAB8CD",
"p+	c #B8A892",
"q+	c #8FA76A",
"r+	c #E88E90",
"s+	c #E6816C",
"t+	c #D2BEC5",
"u+	c #DBBF93",
"v+	c #F1CE89",
"w+	c #F6E3EA",
"x+	c #B7916B",
"y+	c #F18268",
"z+	c #EB6662",
"A+	c #F4A588",
"B+	c #E8D1D9",
"C+	c #E667B1",
"D+	c #E8BB97",
"E+	c #DF6994",
"F+	c #D7976A",
"G+	c #BF838F",
"N N N N N N N N N N N N N N N N N N N N N N N N N N N N N N N N N N N N N N N N N N N N N N N N N N N N N e e e N N N N N N N N N N N N N N N N N N N N N N N N N N N N N N N N N N N N N N N N N N N N N N N N N N N N N N N N N N N N N N N N N ",
"N N N N N N N N N N N N N N N N N N N N N N N N N N N N N N N N N N N N N N N N N N N N N N N N N N N e W v.$.^.T N N N N N N N N N N N N N N N N N N N N N N N N N N N N N N N N N N N N N N N N N N N N N N N N N N N N N N N N N N N N N N N N ",
"N N N N N N N N N N N N N N N N N N N N N N N N N N N N N N N N N N N N N N N N N N N N N N N N N N N T l+E.!.!.-+e N N N N N N N N N N N N N N N N N N N N N N N N N N N N N N N N N N N N N N N N N N N N N N N N N N N N N N N N N N N N N N N ",
"N N N N N N N N N N N N N N N N N N N N N N N N N N N N N N N N N N N N N N N N N N N N N N N N N N e 0 % l+l+@ I } N N N N N N N N N N N N N N N N N N N N N N N N N N N N N N N N N N N N N N N N N N N N N N N N N N N N N N N N N N N N N N N ",
"N N N N N N N N N N N N N N N N N N N N N N N N N N N N N N N N N N N N N N N N N N N N N N N N N N m+: % 1 1 # S m+N N N N N N N N N N N N N N N N N N N N N N N N N N N N N N N N N N N N N N N N N N N N N N N N N N N N N N N N N N N N N N N ",
"N N N N N N N N N N N N N N N N N N N N N N N N N N N N N N N N N N N N N N N N N N N N N N N N N N } * % * $ q+,+e N N N N N N N N N N N N N N N N N N N N N N N N N N N N N N N N N N N N N N N N N N N N N N N N N N N N N N N N N N N N N N N ",
"N N N N N N N N N N N N N N N N N N N N N N N N N N N N N N N N N N N N N N N N N N N N N N N N N N m+| # @ q+E.T N N N N N N N N N N N N N N N N N N N N N N N N N N N N N N N N N N N N N N N N N N N N N N N N N N N N N N N N N N N N N N N N ",
"N N N N N N N N N N N N N N N N N N N N N N N N N N N N N N N N N N N N N N N N N N N N N N N N N N N T ,+S S q e N N N N N N N N N N N N N N N N N N N N N N N N N N N N N N N N N N N N N N N N N N N N N N N N N N N N N N N N N N N N N N N N ",
"N N N N N N N N N N N N N N N N N N N N N N N N N N N N N N N N N N N N N N N N N N N N N N N N N N N e g.g.m+e N N N N N N N N N N N N N N N N N N N N N N N N N N N N N N N N N N N N N N N N N N N N N N N N N N N N N N N N N N N N N N N N N ",
"N N N N N m+T ..L.g.N N N N N N N N N $+L...&+e N N N N g.).).$+e N N m+$+&+L.L.&+m+N N N N N N N N g.W L.).g.N N N N N N N N e $+&+L.L.w+$+m+N N N N N N N N N N N N N e g.$+L.L.L.$+m+e N N N N N N N N N g.).W $+N N N m+g.&+).T g.m+N N N N N ",
"N N N N e h.S._+;+y.$+N N N N N N e w+1+Y.(.{ h.e N N $+@+3 3 ^ V L.h+}.0.O O O n.7+h+m+N N N N N m+r.r _+,.] m+N N N N e $+v u+3 5.O C+n+j.}.B+m+N N N N N N N N N g...^+1+O O O O -.7+h+$+N N N N N N N $+y.z+,.F+..T v ] 4 q.c.L L [ i m+N N N ",
"N N N N g.k u.7.O._+L.N N N N N N e t.( (.(.h @+e N e i _+6 W.Y .+%+D U.d g i.>+4+Y.n.)+$+N N N N ).r ( M |+}+T N N N m+H.c.c.,.7 { >+2.i.5.M ]+'+$+N N N N N N e v D+.+Z.E+g >+1+4+g O U.7+..e N N N N e H././.h = ,.f k S.7.;.3 e+K.7 g ^+g.N N ",
"N N N e L.e+] 5 m.,.).N N N N N N m+2 7 [ ++M e.e N m+)+U.)+~.Y Q Q y+g+8+].o+h+3+h+1+g E e N N e h.6 V.[ ;+>.$+N N g.5+W.6 r+3.3.d+d+z./+/+0+4 Y.'+m+N N N N g.1.#+3 w D+5 H H H H /+z.++U.R ..N N N N m+@+(.N.r+= = :.e+ .j+<+o+*+8.z.P n+1.e N ",
"N N N N i m.5 G.j+4.g.N N N N N N T y.3 *+F 7 B+e N $+j.n./+o+Q z d.j+d.9.M.(+=+/+$+..i.i.&+N N e y {+9+z._+x.m+N e a.&.L D+o _.[+n+n+n+` H $+..2 6 ..N N N m+t.O 5.3.'.a.'.j+C.A+_.].p.8.t.C+}.$+N N N $+A.{+l.a O.= z+T.&.&.C.m.~.p.$+3+[+R $+N ",
"N N N m+Z m.a.G.B v.m+N N N N N N ).L ] 3+M._ W N N $+0.2.T w+a C. .) > ' @+x d a+3+$+^+n+B+N N } b+!.^.E Y.t+e e G.B ) v '.m._+Y.{ >.>+3 9.5+$+G r t.e N m+z.O #.^+6+<+&.) > ' x.6 D j.p.8.}.n+h+N N N W !.*.&+&+N.;+;+X.4.> @.{.K.^ `.$+]..+..N ",
"N N N g.Z L :+a.) h.N N N N N N e '.9.G 3+M.V.g.N e B+O =.$+$+9.z ~+v.T g.g.W t.d ^+w+o+n+h+e N 6.*.j 9 -+!.9 e e '.&.9 G.u+~+y 2+T g.&+< 9.9.5+f+y+'+m+N w+0.#.t.G _.3 4.,+T g.$+2+=.E+Q.w+/+D }.g.N N 9 j -+g.T ] ,.7.9+W g.g.T e.F+D+6.*+C...e ",
"N N N T  .b.:+j+4.2+N N N N N N m+r..+H H c.[ e N e H.O $.g./+(+I.< m+N N N e L.E+j.3+d+C+h+e N L.7.F.q ~ q+T e T b.L p 5 S.' T N N N e g.8 k+q.y+X.9+e m+^+d }.6+=+d %.&+e e N N e &+x -.p.8.[+4+$+e e 9+w.v.} q [.U ,+} N N N N W 4.@.6.a.B v e ",
"N N N q f a p.%+4 T N N N N N N $+r+(+H ].k+^.e N m+}.#./+w+=+U.$.m+N N N N N &+4+2.p.=+g 2+e e H.D.v.K  +~ g.N 6..+2 L.r.,.@+T e N N N e L.B.>.G+y T m+L.4+0.H.].C+B.T N N N N N N e H.-.1.L.j.g T N g.x.w.q } : t ,+e N N N N N 6.i+L 6.'. .W N ",
"N N m+9+,.1.6+n+++m+N N N N N N w+n 1+/+7+#.v N N $+2.-.3+p.j.++T N N N N N e ..E+7+p.i.#.T N m+%.s.,+u  +S } e T n j.8.i n z+y.i &+$+m+m+m+g.$+g.} N e z.U.}./+Q.-.2+N N N N N N N e B+g ^+..R 7 &+N T w.w.K ! l I g.N N N N N e v s+Z `.<+e+T N ",
"N N m+++E+/+6+%+E e N N N N N N h+n+}./+-.{ T N N &+Z.a+8.k.%+H.e N N N N N e z.,.0+V 7 , g.e } G+X 9 & c ,+e N $+_.a+6+8.o n !+r k+%+}.z.L.g.N N N N g.^ Z.H 6+=+'+g.N N N N N N N e h.s+E .._ G+T e W D.*.W A q+,+e N N N N N e 1.!+o H #+V.g.N ",
"N N $+4+-./+k.%+c+N N N N N N e t.C+1./+n+++m+N e B+Z.}.8.=+i.&+N N N N N N e ] F+l.5 }+%.m+e W X !.9 @.j 2+N N N B+%+_.].k.o A+r+s+P.U.U.n+}.3+e N N &+r R p.].[+B+e N N N N N N N e h.4.i 9 {+*.g.e ^.. -+9 ~+!.W N N N N N N m+F r z.6+(+8 e N ",
"N N ..-.=+/+]..+&+N N N N N N g.r+-./+6+a+$.m+N e o Z.1./+n+|.$+N N N N N N $+f k W e.{+v.N N 9 . J.9 A.{+T N N N g.i C !+!+.+A+Z a a 3.F [+D %+i e e V P.)+/+[+4+&+N N N N N N N N m+/ > 9 9+D.p+m+m+-+. v...}+, g.N N N N N N $+r+s+*+a q.^.e N ",
"N e H.O d+/+a+r+$+N N N N N N &+3 2.*+].(+c+e N m+}.E+/+z.O %.m+N N N N N N w+.+b p b {+2+e m+v.m e.h.6 x g.N N N N m+&+H.x.7.X.X.c.m.9.z.*+o (+%+L.g.r.k+z.B+O |.g.N N N N N N N N w+w 4.v @+s.t+e g.J.m h.G P.'+e N N N N N N ).3 F+*+~.K.W N N ",
"N m+}.#.1.z.-.=.e N N N N N e 9 S.] 3+^ >+&+N N $+r+4+B+^+]+^.N N N N N N N B+n 8 ..,.w.T N } -++ ^.G k+'+m+N m+g.$+g.m+e g.T c+@.b+x+S.f *+w+a (+0+$+D+c./+p.4+B.m+N N N N N N N m+1.6 N.l.{ s.W e T E.j B+o Z.^.e N N N N N e B+;.8 *+4 , T N N ",
"N g.1+]+h+^+#.^.e N N N N N $+] F.9 6.L {.g.N N )..+r+/+x #.2+N N N N N N e ^+n E i 6 A.g.e $+F.E.l.].(+H.m+w+=.>+{ x h+e N e e m+m+T v.[.f.6.p T.9+W D+T...B+g B.g.N N N N N N N &+[+g H.r.Y.A.} N W s b+p.8+-.L.N N N N N N m+t.P.0+z.7 {.m+N N ",
"N &+#.|.c+F ]+c+N N N N N g.E 6 ' T :+o.f.m+N N *+s+^+B+i.{+T N N N N N N g.7+!+5 i G+e.e N T [.p+l._.P.2+$+t.( <.( |+V.$+N N N N N e l.[.f.$+:+b./ T D+c.p.L.>+|.T N N N N N N $+}.!+N.*+w {+c+e e 9 F.@.*+a+>+T N N N N N N m+C g h+t.]+$.e N N ",
"N ..7 ++W )+7 ^.e N N e g.t.5.{ ..g.'. .9 e N e r.q.G V X.{.m+N N N N N N $+i.4 ..u+x+9 N N 2+> u+*+#+>+T $+++( %.0+P.6 ..e N N e e T 3.X.u+G.'.L h.g.G y+H &+8 K.^.m+N N N m+w+)+d 1+i i F+p+g.N e < > l.H k+++m+N N N N N N $+g 4+/+}.#.c+N N N ",
"e B+g '+$+h+E+P i &+w+B+7+d +.F $+m+v+4.L.N N } A+c.....4.v.e N N N N N N ..7 V.p.e+7.W e e <  .9 3+!+B.$+} )+#.h+$+^+;+%+1.....B+t.j.z+3 p :+C.F+W m+v c.a 6.v ' [.f.2+:+3+E s+U.>.a r.3 x+9 N N g.o.k v o+E+E e N N N N N N ..Z.}.p.0.]+W N N N ",
"N ..4+}.$+$+^+U.U.P.E+U.+.+.D _.3+:+C.4.$+N N g.C.L :+'.> q e N N N N N N ^.{+y h+}+G+g.e m+D+C.`.'.y+t.e e H.5.^+$+w+)+P.U.E+C+C+D Z.r+H `.j+F+9+e N g.u+ .a.} 9 4.i+F+3 c.X.X.{.t+@+7 D.e.m+N N $+d.b.:+a 6 c+N N N N N N e H.!+t./+[+x $+N N N ",
"N $+1+n+/+$+w+1.1+r #+^ M.M.y+Q <+5+e+p+g.N N G.v+B G.o.[.W N N N N N N e @.!.9+0+D.%.m+N $+T.9.`.5+c.c+e N &+2.n+k.w+8.H [ N.y.N.a 5 p '.u+S.%.T e N N L.) o.p :+3+r.y.2 y.E < < ' {+s.@.m+N N N v A+<+`.9.4 &+N N N N N N m+F q.H *+8+[ e N N N ",
"N m+H.g a+o+/+6+d+].<+j+d.z J - J J !.e.N N e :+d.v+v+e+x.g.N N N N N N } > x+b C D.e.e N L.#+#+f+T.3 W N N e h+>+n+Q.d+H *+a.`.'.'.v+ .4.x+-+T N N N N m+9 4.m.~.o+6+o+d+o H B f.~+j v.g.N N N e z.q.~.f+g+x.g.N N N N N N g.%+Y H v+L h.N N N N ",
"N N g.0+4+Z.D D D k+m.L 4.@.v.p+*.*.-+T e N e c+Q W.W.:.y m+N N N N N N m+' ; h h D.W N e L.P.|+;+_+{.g.N N N e B+++g Z.[+g+9.C.L f ~+x+p+,+} N N N N N N } h.V.g [+a+[+D !+.+S.F.-+2+m+N N N N e z./.O.:.:.e.m+N N N N N N g.P z+m.T.i+W e N N N ",
"N N N e W t+B.|.|.B.%.h.W m+e e } g.e N N N e T y , G+%.&+N N N N N N N e 9 b+G+*.t+m+N N g.$.G+G+B.9 e N N N N N $+2+$.=.x., x+b+-+v.2+g.e N N N N N N N N N T c+t.B.|.|.B.y h.T e N N N N N N N T =.G+A.%.T N N N N N N N e ^.V., x.^.e N N N N ",
"N N N N N e m+g.T $+e e N N N N N N N N N N N N g.$+g.e N N N N N N N N N e g.$+$+e N N N N m+g.$+} e N N N N N N N e m+g.g.g.g.m+m+N N N N N N N N N N N N N N e e g.g.$+g.e e e N N N N N N N N e m+$+T m+e N N N N N N N N e } g.g.e N N N N N "};
